<svg width="287" height="100" viewBox="0 0 287 100" fill="none" xmlns="http://www.w3.org/2000/svg" class="Nav_logo___Ag6p" style="fill: none !important;"><path d="M186.133 66.4128C184.777 67.498 183.342 68.3314 181.831 68.9128C180.358 69.4941 178.827 69.7848 177.238 69.7848C175.881 69.7848 174.641 69.5717 173.517 69.1453C172.432 68.7577 171.482 68.1957 170.668 67.4593C169.854 66.6841 169.215 65.7926 168.749 64.7848C168.323 63.7383 168.11 62.5949 168.11 61.3546C168.11 59.843 168.439 58.467 169.098 57.2267C169.796 55.9864 170.746 54.9205 171.947 54.029C173.187 53.1376 174.641 52.4399 176.308 51.936C178.013 51.4321 179.893 51.1802 181.947 51.1802C183.342 51.1802 184.738 51.2383 186.133 51.3546V49.3779C186.133 47.75 185.552 46.4321 184.389 45.4244C183.265 44.4166 181.792 43.9128 179.97 43.9128C176.908 43.9128 173.788 44.8042 170.61 46.5872V41.6453C173.943 40.0949 177.277 39.3197 180.61 39.3197C182.277 39.3197 183.788 39.5717 185.145 40.0755C186.54 40.5794 187.722 41.2965 188.691 42.2267C189.66 43.1182 190.397 44.1841 190.901 45.4244C191.443 46.6647 191.715 48.0407 191.715 49.5523V69.7848H186.133V66.4128ZM173.924 60.5407C173.924 61.8972 174.389 63.0213 175.319 63.9128C176.288 64.7655 177.509 65.1918 178.982 65.1918C181.501 65.1918 183.885 64.029 186.133 61.7035V55.0755C184.854 54.9593 183.575 54.9011 182.296 54.9011C179.777 54.9011 177.742 55.4244 176.191 56.4709C174.68 57.5174 173.924 58.874 173.924 60.5407Z" fill="currentColor" style="fill: rgb(255, 255, 255) !important;"/><path d="M238.926 54.3197C238.926 52.1104 239.274 50.0949 239.972 48.2732C240.67 46.4515 241.619 44.8817 242.821 43.5639C244.061 42.2073 245.534 41.1608 247.239 40.4244C248.945 39.6879 250.805 39.3197 252.821 39.3197C254.643 39.3197 256.309 39.6686 257.821 40.3662C259.333 41.0639 260.612 42.0523 261.658 43.3314C262.743 44.6104 263.577 46.1414 264.158 47.9244C264.778 49.6686 265.088 51.5872 265.088 53.6802C265.088 54.0678 265.088 54.4554 265.088 54.843C265.088 55.1918 265.05 55.5794 264.972 56.0058H244.739C244.817 57.3624 245.108 58.6027 245.612 59.7267C246.115 60.8507 246.794 61.8197 247.646 62.6337C248.499 63.4476 249.488 64.0872 250.612 64.5523C251.736 64.9786 252.976 65.1918 254.333 65.1918C257.084 65.1918 259.953 64.2616 262.937 62.4011V67.5174C259.798 69.029 256.639 69.7848 253.46 69.7848C251.329 69.7848 249.371 69.4166 247.588 68.6802C245.805 67.905 244.274 66.8391 242.995 65.4825C241.716 64.0872 240.708 62.4593 239.972 60.5988C239.274 58.6996 238.926 56.6066 238.926 54.3197ZM259.391 52.1104C259.313 49.6686 258.635 47.6918 257.356 46.1802C256.115 44.6686 254.507 43.9128 252.53 43.9128C250.398 43.9128 248.615 44.6686 247.181 46.1802C245.747 47.6918 244.933 49.6686 244.739 52.1104H259.391Z" fill="currentColor" style="fill: rgb(255, 255, 255) !important;"/><path d="M270.402 39.3197H276.216V43.2732C278.503 40.6376 281.061 39.3197 283.89 39.3197C284.743 39.3197 285.615 39.436 286.506 39.6686V44.9593C285.576 44.6492 284.627 44.4941 283.658 44.4941C282.34 44.4941 281.022 44.8624 279.704 45.5988C278.425 46.2965 277.262 47.3236 276.216 48.6802V69.7299H270.402V39.3197Z" fill="currentColor" style="fill: rgb(255, 255, 255) !important;"/><path d="M205.809 39.1618H219.126V43.8711H205.809V60.3003C205.809 61.6957 206.235 62.8391 207.088 63.7305C207.941 64.5833 209.084 65.0096 210.518 65.0096C211.177 65.0096 211.875 64.8933 212.611 64.6608C213.387 64.3895 214.181 64.0406 214.995 63.6143V68.6143C212.863 69.467 210.925 69.8933 209.181 69.8933C207.825 69.8933 206.584 69.6802 205.46 69.2538C204.336 68.8274 203.367 68.2267 202.553 67.4515C201.739 66.6375 201.1 65.6879 200.635 64.6026C200.17 63.5174 199.937 62.3158 199.937 60.998V43.8711H194.646V39.1618H199.937V30H205.809V39.1618Z" fill="currentColor" style="fill: rgb(255, 255, 255) !important;"/><path d="M226.753 39.1618H235.939V43.8711H226.753V60.3003C226.753 61.6957 227.179 62.8391 228.032 63.7305C228.885 64.5833 230.028 65.0096 231.462 65.0096C232.121 65.0096 232.819 64.8933 233.555 64.6608C234.331 64.3895 235.125 64.0406 235.939 63.6143V68.6143C233.807 69.467 231.869 69.8933 230.125 69.8933C228.768 69.8933 227.528 69.6802 226.404 69.2538C225.28 68.8274 224.311 68.2267 223.497 67.4515C222.683 66.6375 222.044 65.6879 221.579 64.6026C221.113 63.5174 220.881 62.3158 220.881 60.998V43.8711H218.497V39.1618H220.881V30H226.753V39.1618Z" fill="currentColor" style="fill: rgb(255, 255, 255) !important;"/><path d="M125.5 30H130.791L144.395 49.1279L157.942 30H163.233V70H157.535V39.7093L146.198 55.6977H142.477L131.198 39.7093V70H125.5V30Z" fill="currentColor" style="fill: rgb(255, 255, 255) !important;"/><path fill-rule="evenodd" clip-rule="evenodd" d="M31.25 0H68.75C86.0089 0 100 13.9911 100 31.25V68.75C100 86.0089 86.0089 100 68.75 100H31.25C13.9911 100 0 86.0089 0 68.75V31.25C0 13.9911 13.9911 0 31.25 0ZM74.9021 31.3478C74.9021 27.8959 72.1042 25.0977 68.6521 25.0977C65.2005 25.0977 62.4021 27.8959 62.4021 31.3478C62.4021 31.9695 62.4932 32.57 62.662 33.1368C62.7276 33.3553 62.6766 33.5946 62.5156 33.7557L52.4083 43.8631C52.2469 44.0243 52.0075 44.075 51.7892 44.0098C51.2223 43.8408 50.6218 43.75 50 43.75C49.3782 43.75 48.7777 43.8408 48.2109 44.0098C47.9925 44.075 47.7531 44.0243 47.592 43.8631L37.4846 33.7556C37.3234 33.5945 37.2728 33.3552 37.3379 33.1367C37.5068 32.57 37.5977 31.9694 37.5977 31.3478C37.5977 27.8959 34.7995 25.0977 31.3477 25.0977C27.8958 25.0977 25.0977 27.8959 25.0977 31.3478C25.0977 33.2057 25.9084 34.8743 27.1954 36.0191C27.3656 36.1705 27.4482 36.4005 27.396 36.6222L21.3776 62.1667C21.3253 62.3885 21.1479 62.5578 20.9277 62.6172C18.2668 63.3344 16.3086 65.7646 16.3086 68.6521C16.3086 72.1042 19.1068 74.9021 22.5586 74.9021C26.0103 74.9021 28.8086 72.1042 28.8086 68.6521C28.8086 66.7943 27.9979 65.126 26.7108 63.9807C26.5407 63.8297 26.4581 63.5995 26.5104 63.3776L32.5285 37.8334C32.5808 37.6114 32.7579 37.4422 32.9782 37.3828C33.0314 37.3685 33.0842 37.3535 33.1368 37.3378C33.3552 37.2727 33.5945 37.3233 33.7558 37.4846L43.8631 47.592C44.0243 47.7531 44.075 47.9925 44.0098 48.2109C43.8408 48.7777 43.75 49.3783 43.75 50.0001C43.75 53.4516 46.5483 56.25 50 56.25C53.4521 56.25 56.25 53.4516 56.25 50.0001C56.25 49.3783 56.1594 48.7777 55.9901 48.2109C55.925 47.9925 55.9755 47.7531 56.137 47.592L66.2443 37.4846C66.4052 37.3233 66.6448 37.2727 66.863 37.3378C66.9156 37.3535 66.9688 37.3685 67.0219 37.3828C67.2422 37.4422 67.4193 37.6114 67.4714 37.8334L73.4896 63.3776C73.5417 63.5995 73.4594 63.8297 73.2891 63.9807C72.0021 65.126 71.1917 66.7943 71.1917 68.6521C71.1917 72.1042 73.9896 74.9021 77.4417 74.9021C80.8932 74.9021 83.6917 72.1042 83.6917 68.6521C83.6917 65.7646 81.7333 63.3344 79.0724 62.6172C78.8521 62.5578 78.675 62.3885 78.6224 62.1667L72.6042 36.6222C72.5516 36.4005 72.6344 36.1705 72.8047 36.0191C74.0917 34.8743 74.9021 33.2057 74.9021 31.3478Z" fill="currentColor" style="fill: rgb(255, 255, 255) !important;"/></svg>